<svg width="63" height="69" viewBox="0 0 63 69" fill="none" xmlns="http://www.w3.org/2000/svg">
<path d="M23.7384 0.779541L11.2215 2.08142L0.707031 15.5998V23.1103L8.71793 31.9223L17.9306 30.0197L24.9403 31.4216L23.4383 36.829L28.2447 45.5409L25.8416 51.6493L31.5147 68.2204L39.1598 66.9703L46.1695 59.0595L46.7702 53.5518L51.2764 50.1472L50.375 40.2336L62.2937 24.9786L54.8812 26.0142L43.5657 6.28719L25.7412 5.08554L23.7384 0.779541ZM59.7174 46.376L57.664 49.3502L55.7523 49.4209C54.0629 52.8886 53.9561 54.8416 53.7695 58.9091L56.2479 59.5465L59.3635 52.1115L59.7174 46.376Z" fill="black"/>
</svg>
