<svg width="86" height="88" viewBox="0 0 86 88" fill="none" xmlns="http://www.w3.org/2000/svg">
<path d="M46.2771 6.8313C68.1062 6.8313 85.8011 24.9631 85.8011 47.3313C85.8011 69.6994 68.1062 87.8312 46.2771 87.8312C39.2922 87.8436 32.4301 85.9494 26.3965 82.3435L6.7688 87.8312L12.1125 67.7108C8.5907 61.5262 6.74075 54.4917 6.75299 47.3313C6.75299 24.9631 24.4479 6.8313 46.2771 6.8313ZM32.8073 28.2963L32.0168 28.3287C31.5057 28.3648 31.0063 28.5023 30.5465 28.7337C30.1179 28.9828 29.7266 29.2938 29.3845 29.6571C28.9102 30.1147 28.6414 30.5116 28.3529 30.8964C26.891 32.844 26.1039 35.2352 26.1158 37.6923C26.1237 39.6768 26.6296 41.6086 27.4201 43.4149C29.0367 47.068 31.6966 50.9358 35.2064 54.52C36.0522 55.3827 36.8822 56.2494 37.7754 57.0553C42.1366 60.9895 47.3335 63.8268 52.9527 65.3416L55.1976 65.694C55.9288 65.7345 56.66 65.6778 57.3952 65.6413C58.5461 65.5791 59.6698 65.2598 60.6875 64.7058C61.2047 64.4318 61.7098 64.1345 62.2013 63.8148C62.2013 63.8148 62.3686 63.6987 62.6954 63.4503C63.2289 63.0453 63.557 62.7577 63.9997 62.2839C64.3317 61.9329 64.6083 61.5252 64.8297 61.0608C65.1379 60.4006 65.4462 59.1411 65.5727 58.0921C65.6676 57.2902 65.6399 56.8528 65.628 56.5815C65.6122 56.1481 65.2605 55.6986 64.8771 55.5082L62.5768 54.4512C62.5768 54.4512 59.1382 52.9162 57.0355 51.9361C56.8154 51.8379 56.5797 51.7817 56.3399 51.7701C56.0694 51.7411 55.7961 51.772 55.5383 51.8607C55.2805 51.9495 55.0444 52.094 54.8459 52.2844C54.8261 52.2763 54.5613 52.5072 51.7037 56.055C51.5397 56.2808 51.3138 56.4515 51.0547 56.5452C50.7957 56.639 50.5153 56.6516 50.2492 56.5815C49.9916 56.5111 49.7393 56.4218 49.4943 56.3142C49.0042 56.1036 48.8343 56.0226 48.4983 55.8768C46.2291 54.8639 44.1287 53.4932 42.2733 51.8146C41.7753 51.3691 41.3128 50.8831 40.8385 50.4133C39.2837 48.8873 37.9286 47.1611 36.8071 45.2779L36.5739 44.8932C36.4089 44.6331 36.2737 44.3546 36.1708 44.0629C36.0206 43.4676 36.4118 42.9897 36.4118 42.9897C36.4118 42.9897 37.3723 41.9124 37.8189 41.3292C38.2537 40.7622 38.6212 40.2114 38.8584 39.8185C39.3248 39.049 39.471 38.2593 39.226 37.6477C38.1193 34.8775 36.9757 32.1222 35.7953 29.3817C35.5621 28.839 34.8704 28.4502 34.242 28.3732C34.0285 28.3462 33.8151 28.3246 33.6017 28.3084C33.071 28.2772 32.5389 28.2827 32.0089 28.3246L32.8073 28.2963Z" fill="black"/>
</svg>
